<?xml version="1.0" encoding="UTF-8" standalone="no"?>
<svg
   id="svg2"
   width="500"
   height="100"
   version="1.1"
   viewBox="0 0 132.29019 26.457829"
   sodipodi:docname="cover.svg"
   inkscape:version="1.4.2 (ebf0e940d0, 2025-05-08)"
   xmlns:inkscape="http://www.inkscape.org/namespaces/inkscape"
   xmlns:sodipodi="http://sodipodi.sourceforge.net/DTD/sodipodi-0.dtd"
   xmlns="http://www.w3.org/2000/svg"
   xmlns:svg="http://www.w3.org/2000/svg">
  <defs
     id="defs1" />
  <sodipodi:namedview
     id="namedview1"
     pagecolor="#ffffff"
     bordercolor="#000000"
     borderopacity="0.25"
     inkscape:showpageshadow="2"
     inkscape:pageopacity="0.0"
     inkscape:pagecheckerboard="0"
     inkscape:deskcolor="#d1d1d1"
     inkscape:zoom="2.0585049"
     inkscape:cx="313.81999"
     inkscape:cy="72.139736"
     inkscape:window-width="1888"
     inkscape:window-height="1006"
     inkscape:window-x="1936"
     inkscape:window-y="58"
     inkscape:window-maximized="1"
     inkscape:current-layer="svg2" />
  <path
     id="path1"
     d="M 132.29019,0 H 0 v 26.457933 h 132.29019 z"
     fill="#ff4274"
     fill-opacity="0.25"
     opacity="0.542"
     overflow="visible"
     style="stroke-width:1.23561;fill:#7f7dff;fill-opacity:0.25" />
  <path
     id="path2"
     d="m 0.31609802,16.049248 c 1.03935248,0.650469 1.83384208,1.365084 2.74295978,2.01603 l 0.3725722,0.26494 0.4388074,0.298058 c 0.5257408,0.318756 1.9456551,1.310212 3.6594874,1.026643 l 0.3725723,-0.07658 0.4077596,-0.124191 0.4160391,-0.165588 0.4098294,-0.198705 c 1.5047778,-0.827938 2.4651868,-1.780067 3.6553478,-2.655612 l 0.422248,-0.306337 0.40362,-0.27322 c 0.6727,-0.411899 2.183688,-1.434403 4.077597,-0.79896 l 0.39327,0.149029 0.428459,0.202844 0.372572,0.206985 0.420179,0.26908 0.407759,0.289778 0.40776,0.314617 c 1.314352,1.003875 2.326507,2.175408 4.077596,3.117188 l 0.389131,0.173867 0.399481,0.140749 c 2.026379,0.620954 3.589112,-0.79896 4.096225,-1.154974 l 0.39534,-0.324965 0.393271,-0.345665 0.420179,-0.389131 c 2.891574,-2.641123 5.139427,-5.849384 9.341214,-0.985246 l 0.418109,0.465715 0.418109,0.476065 0.387061,0.440877 0.39948,0.455366 0.413969,0.455366 0.413969,0.430528 0.424319,0.409829 c 0.358083,0.27943 1.848372,1.895979 3.6243,1.165324 l 0.422249,-0.206985 0.39948,-0.260801 c 1.74695,-1.407495 2.589377,-3.055092 3.651208,-4.524683 l 0.438807,-0.641652 0.393271,-0.558858 0.422248,-0.562998 0.382922,-0.476065 0.418109,-0.465715 0.393271,-0.382922 0.409829,-0.331175 0.40155,-0.250451 0.420179,-0.173867 0.202845,-0.05175 0.202845,-0.02898 0.206984,-0.0041 0.206985,0.0207 0.204915,0.0414 0.206984,0.07037 0.374642,0.190426 0.434668,0.320826 0.384991,0.376712 0.413969,0.492623 0.393271,0.554719 0.438807,0.703748 0.378782,0.676839 0.430528,0.832078 0.393271,0.80724 0.430528,0.921081 0.370502,0.81759 0.420179,0.93971 0.409829,0.900383 0.40569,0.879684 0.40569,0.840357 0.391201,0.755494 c 0.254591,0.314617 1.20051,2.601796 2.558329,2.773594 l 0.09935,0.0041 0.103492,-0.0062 0.09935,-0.01449 0.211124,-0.06209 0.211124,-0.109702 0.194566,-0.13868 0.194565,-0.180077 0.397411,-0.488483 0.438807,-0.736865 0.39948,-0.844497 0.40569,-1.036993 0.413969,-1.233628 0.380852,-1.287444 0.40569,-1.523407 0.40362,-1.662086 0.430528,-1.924957 C 70.740942,8.2066098 71.788284,1.6369187 72.986724,-4.9286323 l 0.432598,-2.338926 0.372573,-1.953934 0.430527,-2.1381507 0.40362,-1.88356 0.399481,-1.730391 0.39948,-1.573083 0.40776,-1.432334 0.434667,-1.304002 0.393271,-0.993526 0.393271,-0.780332 0.418108,-0.600256 0.209055,-0.211124 0.206984,-0.146959 0.101423,-0.04968 0.09728,-0.03312 0.09935,-0.0207 0.09728,-0.0083 0.107632,0.0083 0.103492,0.02277 0.107632,0.0414 0.107632,0.05589 0.186286,0.13661 0.184217,0.186286 0.413969,0.587836 0.420179,0.832078 0.418108,1.055621 0.387062,1.171533 0.39948,1.395076 0.413969,1.624829 0.413969,1.784207 c 1.258466,5.7645207 2.198176,11.5352517 3.233099,17.3039117 l 0.432598,2.41965 0.382922,2.0905439 0.422248,2.2230154 0.40155,2.024309 c 0.854847,3.796097 1.4758,7.697757 3.253798,11.466946 l 0.393271,0.66649 0.440877,0.54437 c 0.217334,0.211124 0.79896,0.782402 1.61448,0.335315 l 0.198705,-0.122121 0.196635,-0.153169 0.40983,-0.418109 0.40155,-0.521601 0.420179,-0.652001 0.405689,-0.714097 c 1.221209,-2.307878 2.105034,-4.630245 3.266217,-6.942263 l 0.378782,-0.732725 0.432598,-0.765843 c 0.310477,-0.438808 1.324701,-2.463117 2.835693,-2.711498 l 0.19457,-0.0207 0.19457,0.0062 0.21112,0.02691 0.20905,0.05175 0.40155,0.165587 0.42432,0.260801 0.38292,0.308407 0.42225,0.40983 0.40569,0.455366 0.40362,0.500902 0.42225,0.567138 0.38913,0.548509 0.39741,0.581627 0.44088,0.652001 c 0.91073,1.275025 1.69727,2.682521 3.21861,3.90373 l 0.43881,0.287708 0.39327,0.192496 0.39327,0.124191 0.42018,0.0621 0.42432,-0.01035 0.38292,-0.07658 0.40776,-0.14282 0.39948,-0.200775 c 1.87942,-1.20672 2.81499,-2.744616 4.06724,-4.034129 l 0.41811,-0.445017 0.41811,-0.420179 c 0.46158,-0.364293 2.17334,-2.367904 4.45017,-1.426124 l 0.41397,0.192496 0.41397,0.235962 0.42225,0.287709 0.37464,0.285639 c 1.6062,1.277094 2.61215,2.670101 4.49157,3.912008 l 0.38499,0.219404 0.41397,0.194565 c 0.97947,0.420469 1.87838,0.337427 2.61939,0.09103"
     fill="none"
     opacity="0.61"
     stroke="#ff4274"
     stroke-linecap="square"
     stroke-miterlimit="10"
     stroke-width="0.87954"
     style="stroke:#6483ff;stroke-opacity:1" />
</svg>
